<svg width="121" height="121" viewBox="0 0 121 121" fill="none" xmlns="http://www.w3.org/2000/svg">
<g clip-path="url(#clip0_256_96)">
<path d="M92.6406 0H28.3594C12.6969 0 0 12.6969 0 28.3594V92.6406C0 108.303 12.6969 121 28.3594 121H92.6406C108.303 121 121 108.303 121 92.6406V28.3594C121 12.6969 108.303 0 92.6406 0Z" fill="#F0DB4F"/>
<path d="M31.8154 101.116L41.0748 95.5125C42.8614 98.6797 44.4864 101.36 48.3844 101.36C52.1207 101.36 54.4764 99.8983 54.4764 94.2131V55.5508H65.8476V94.3739C65.8476 106.151 58.944 111.512 48.8717 111.512C39.7754 111.512 34.4954 106.801 31.8149 101.115M72.0238 99.8978L81.2822 94.5374C83.7197 98.5176 86.8874 101.441 92.4913 101.441C97.2032 101.441 100.207 99.0858 100.207 95.8367C100.207 91.9382 97.1209 90.5571 91.9226 88.2837L89.0806 87.0647C80.8767 83.5727 75.4345 79.1865 75.4345 69.9271C75.4345 61.3985 81.9326 54.9004 92.0857 54.9004C99.3145 54.9004 104.513 57.4187 108.249 63.9976L99.3953 69.6832C97.4456 66.1908 95.3347 64.8101 92.0857 64.8101C88.7554 64.8101 86.6435 66.922 86.6435 69.6832C86.6435 73.0944 88.7554 74.4755 93.6285 76.5878L96.471 77.8058C106.136 81.9487 111.579 86.1714 111.579 95.6741C111.579 105.909 103.538 111.513 92.7351 111.513C82.1765 111.513 75.3537 106.477 72.0238 99.8978Z" fill="#323330"/>
</g>
<defs>
<clipPath id="clip0_256_96">
<rect width="121" height="121" fill="white"/>
</clipPath>
</defs>
</svg>
