<svg width="121" height="121" viewBox="0 0 121 121" fill="none" xmlns="http://www.w3.org/2000/svg">
<g clip-path="url(#clip0_256_92)">
<path d="M60.5 121C93.9132 121 121 93.9132 121 60.5C121 27.0868 93.9132 0 60.5 0C27.0868 0 0 27.0868 0 60.5C0 93.9132 27.0868 121 60.5 121Z" fill="black"/>
<path d="M100.503 105.888L46.4782 36.3H36.3V84.6802H44.443V46.6408L94.1097 110.812C96.348 109.315 98.4838 107.67 100.503 105.888Z" fill="url(#paint0_linear_256_92)"/>
<path d="M77.3058 36.3H85.3721V84.7H77.3058V36.3Z" fill="url(#paint1_linear_256_92)"/>
</g>
<defs>
<linearGradient id="paint0_linear_256_92" x1="73.2722" y1="78.3138" x2="97.136" y2="107.892" gradientUnits="userSpaceOnUse">
<stop stop-color="white"/>
<stop offset="1" stop-color="white" stop-opacity="0"/>
</linearGradient>
<linearGradient id="paint1_linear_256_92" x1="81.3388" y1="36.2999" x2="81.2037" y2="71.8436" gradientUnits="userSpaceOnUse">
<stop stop-color="white"/>
<stop offset="1" stop-color="white" stop-opacity="0"/>
</linearGradient>
<clipPath id="clip0_256_92">
<rect width="121" height="121" fill="white"/>
</clipPath>
</defs>
</svg>
