<svg width="121" height="121" viewBox="0 0 121 121" fill="none" xmlns="http://www.w3.org/2000/svg">
<g clip-path="url(#clip0_256_100)">
<path d="M60.5001 120.778C58.7758 120.778 57.1726 120.329 55.6752 119.553L40.404 110.791C38.11 109.571 39.2595 109.127 39.9502 108.905C43.0458 107.907 43.6206 107.685 46.8372 105.905C47.18 105.683 47.6438 105.794 47.9867 106.016L59.6985 112.787C60.1522 113.009 60.732 113.009 61.0748 112.787L106.888 87.1553C107.342 86.9335 107.574 86.4898 107.574 85.9352V34.7825C107.574 34.2279 107.347 33.7842 106.888 33.5624L61.0748 8.0465C60.616 7.82466 60.0413 7.82466 59.6985 8.0465L13.8848 33.5624C13.426 33.7842 13.1941 34.3388 13.1941 34.7825V85.9352C13.1941 86.3789 13.426 86.9335 13.8848 87.1553L26.3982 94.1481C33.1742 97.4756 37.4193 93.5935 37.4193 89.7114V39.2242C37.4193 38.5587 37.9941 37.8932 38.8007 37.8932H44.6541C45.3448 37.8932 46.0305 38.4477 46.0305 39.2242V89.7064C46.0305 98.4738 41.0947 103.576 32.4835 103.576C29.8417 103.576 27.7746 103.576 21.9212 100.803L9.86662 94.1481C8.41508 93.3481 7.20292 92.1758 6.35489 90.7518C5.50686 89.3277 5.0536 87.7035 5.04175 86.0461V34.8934C5.04175 31.5659 6.87691 28.4602 9.86662 26.7965L55.6802 1.15958C57.1724 0.396679 58.8242 -0.00112915 60.5001 -0.00112915C62.1759 -0.00112915 63.8278 0.396679 65.3199 1.15958L111.139 26.7914C114.123 28.4552 115.958 31.5608 115.958 34.8883V86.0411C115.958 89.3686 114.123 92.4742 111.139 94.143L65.325 119.77C63.8021 120.43 62.1598 120.77 60.5001 120.768M74.6218 85.5924C54.5307 85.5924 50.3966 76.719 50.3966 69.1717C50.3966 68.5062 50.9713 67.8407 51.773 67.8407H57.7423C58.433 67.8407 59.0027 68.2843 59.0027 68.9498C59.9253 74.8284 62.5672 77.7122 74.7377 77.7122C84.3825 77.7122 88.5166 75.6048 88.5166 70.6136C88.5166 67.7297 87.3671 65.6223 72.3278 64.1804C59.8094 62.9553 52.0049 60.2983 52.0049 50.6435C52.0049 41.6542 59.8094 36.3252 72.9026 36.3252C87.599 36.3252 94.8338 41.2106 95.7514 51.8636C95.7402 52.2241 95.6188 52.5725 95.4035 52.8619C95.1767 53.0837 94.8338 53.3055 94.4859 53.3055H88.5166C88.2266 53.2985 87.9468 53.1973 87.7194 53.0172C87.4921 52.8371 87.3295 52.5879 87.2562 52.3073C85.8748 46.2069 82.3154 44.2053 72.9026 44.2053C62.3352 44.2053 61.0748 47.7547 61.0748 50.4217C61.0748 53.6383 62.5672 54.6365 76.8048 56.4112C90.9265 58.1859 97.5866 60.737 97.5866 70.2758C97.4706 80.0465 89.2073 85.5924 74.6218 85.5924Z" fill="black"/>
</g>
<defs>
<clipPath id="clip0_256_100">
<rect width="121" height="121" fill="white"/>
</clipPath>
</defs>
</svg>
