<svg width="121" height="121" viewBox="0 0 121 121" fill="none" xmlns="http://www.w3.org/2000/svg">
<path d="M60.5 45.375C88.6476 45.375 105.875 55.1684 105.875 60.5C105.875 65.8316 88.6476 75.625 60.5 75.625C32.3524 75.625 15.125 65.8316 15.125 60.5C15.125 55.1684 32.3524 45.375 60.5 45.375ZM60.5 37.8125C31.2634 37.8125 7.5625 47.9689 7.5625 60.5C7.5625 73.0311 31.2634 83.1875 60.5 83.1875C89.7366 83.1875 113.438 73.0311 113.438 60.5C113.438 47.9689 89.7366 37.8125 60.5 37.8125Z" fill="#00BCD4"/>
<path d="M60.5 52.9375C59.0043 52.9375 57.5422 53.381 56.2985 54.212C55.0549 55.043 54.0856 56.2241 53.5132 57.606C52.9408 58.9878 52.791 60.5084 53.0828 61.9754C53.3746 63.4424 54.0949 64.7899 55.1525 65.8475C56.2101 66.9051 57.5577 67.6254 59.0246 67.9172C60.4916 68.209 62.0122 68.0592 63.3941 67.4868C64.7759 66.9145 65.957 65.9451 66.788 64.7015C67.619 63.4579 68.0625 61.9957 68.0625 60.5C68.0625 58.4943 67.2657 56.5708 65.8475 55.1525C64.4293 53.7343 62.5057 52.9375 60.5 52.9375Z" fill="#00BCD4"/>
<path d="M39.5442 20.8233C47.171 20.8233 61.9935 32.8364 73.5981 52.9375C87.672 77.3152 87.8043 97.129 83.1874 99.7948C82.6548 100.071 82.0586 100.201 81.4594 100.173C73.8326 100.173 59.0063 88.1636 47.4016 68.0625C33.3278 43.6848 33.1955 23.871 37.8124 21.2053C38.3461 20.9284 38.9437 20.7942 39.5442 20.8233ZM39.5404 13.2646C37.6133 13.2298 35.7117 13.7087 34.0311 14.6523C23.1789 20.9179 26.2342 46.5245 40.8525 71.8438C53.2701 93.3591 70.0438 107.739 81.4631 107.739C83.3896 107.771 85.2899 107.289 86.9686 106.344C97.8208 100.082 94.7656 74.4755 80.1473 49.1563C67.7296 27.6409 50.956 13.2608 39.5366 13.2608L39.5404 13.2646Z" fill="#00BCD4"/>
<path d="M81.4595 20.8233C82.0587 20.7949 82.6549 20.9253 83.1875 21.2015C87.8044 23.871 87.6721 43.6848 73.5983 68.0625C61.9898 88.1636 47.1673 100.177 39.5405 100.177C38.9413 100.205 38.3451 100.075 37.8125 99.7985C33.1956 97.1252 33.3279 77.3114 47.4018 52.9375C59.0102 32.8364 73.8327 20.8233 81.4595 20.8233ZM81.4595 13.2608C70.0401 13.2608 53.2703 27.6447 40.8489 49.1562C26.2381 74.4755 23.1791 100.082 34.0313 106.344C35.7111 107.29 37.6128 107.772 39.5405 107.739C50.9599 107.739 67.7298 93.3553 80.1512 71.8437C94.7619 46.5245 97.8209 20.9179 86.9688 14.6561C85.2889 13.7099 83.3872 13.2283 81.4595 13.2608Z" fill="#00BCD4"/>
</svg>
