<svg width="130" height="130" viewBox="0 0 130 130" fill="none" xmlns="http://www.w3.org/2000/svg">
<g clip-path="url(#clip0_8_102)">
<path d="M65.0041 26.002C47.6705 26.002 36.8409 34.6653 32.5042 51.999C39.0021 43.3347 46.5878 40.0857 55.2521 42.252C60.1992 43.485 63.7346 47.0722 67.6499 51.0473C74.0219 57.5138 81.3974 65 97.5042 65C114.837 65 125.667 56.3357 130.004 38.998C123.504 47.6667 115.921 50.9173 107.255 48.75C102.309 47.516 98.7777 43.9298 94.8574 39.9547C88.4895 33.4882 81.116 26.002 65.0041 26.002ZM32.5042 65C15.1715 65 4.34087 73.6643 0.00415039 91.002C6.50347 82.3333 14.0861 79.0827 22.7521 81.25C27.6992 82.484 31.2346 86.0702 35.1499 90.0453C41.5219 96.5118 48.8974 103.998 65.0041 103.998C82.3368 103.998 93.1674 95.3347 97.5042 78.001C91.0042 86.6657 83.4212 89.9146 74.7552 87.748C69.8091 86.515 66.2777 82.9278 62.3574 78.9527C55.9895 72.4862 48.616 65 32.5042 65Z" fill="#38BDF8"/>
</g>
<defs>
<clipPath id="clip0_8_102">
<rect width="130" height="130" fill="white"/>
</clipPath>
</defs>
</svg>
